:SAMPLES-PER-SECOND 30
:FULLY-SPECIFIED
:DEGREES
206
root  61.0988 35.7827 -18.5999 39.8545 17.6877 -1.6291
RightUpLeg  -76.675 -14.4157 23.6488
RightLeg  39.6626 -5.25006 -4.93549
RightFoot  -6.44256 0.365977 -9.54006
RightToes  0.00048216 0.542163 -0.142577
Spine  69.4078 -3.4837 7.38769
Spine1  0.779897 1.39585 -2.46213
HEad  -42.7058 -4.41468 10.4168
LeftShoulder1  9.52157 -28.7392 -22.9873
LeftArm  -75.7216 -61.7147 37.7959
LeftForeArm  2.24622 -6.65507 -2.15211
LeftHand  -0.25398 0.0180481 5.50724
RightShoulder  2.0975 12.0082 5.79803
RightArm  -59.7755 73.8644 -7.23162
RightForeArm  -23.636 7.81189 6.38996
RightHand  -2.14288 9.79954 -16.7307
LeftUpLeg  -79.0599 21.7052 -32.7582
LeftLeg  39.7886 7.01232 6.59912
LeftFoot  -12.334 0.17649 11.7385
LeftToes  1.06248e-005 4.65856e-005 -8.18499e-006
207
root  61.0758 35.8234 -18.6312 39.4917 17.7986 -1.66812
RightUpLeg  -76.208 -14.4226 23.4877
RightLeg  39.4197 -5.45727 -5.07527
RightFoot  -6.18052 0.393564 -9.62531
RightToes  0.00048216 0.542163 -0.142577
Spine  69.3623 -3.52815 7.66603
Spine1  0.595205 1.54876 -2.56409
HEad  -42.2902 -4.61563 10.0669
LeftShoulder1  9.27511 -28.9847 -21.9467
LeftArm  -75.6266 -62.1383 37.87
LeftForeArm  3.81944 -5.57802 -2.14814
LeftHand  -0.25398 0.0180481 5.50724
RightShoulder  2.08276 12.0826 5.61829
RightArm  -59.9433 73.5143 -6.98522
RightForeArm  -22.5275 7.51755 6.06011
RightHand  -1.99011 8.64293 -16.793
LeftUpLeg  -78.7055 21.8839 -32.676
LeftLeg  39.532 7.1317 6.64562
LeftFoot  -12.1349 0.155721 11.8694
LeftToes  1.06248e-005 4.65856e-005 -8.18499e-006
208
root  61.0491 35.9028 -18.6813 38.9501 17.7724 -1.57104
RightUpLeg  -75.4651 -14.6143 23.2403
RightLeg  38.9186 -5.54852 -5.06738
RightFoot  -5.80272 0.43838 -9.83691
RightToes  0.00048216 0.542163 -0.142577
Spine  69.2063 -3.54174 7.97336
Spine1  0.572989 1.77318 -2.72362
HEad  -41.9128 -5.03214 9.81659
LeftShoulder1  9.09638 -29.214 -21.1506
LeftArm  -75.4499 -63.0118 37.2113
LeftForeArm  6.04191 -4.95867 -2.16075
LeftHand  -0.25398 0.0180481 5.50724
RightShoulder  2.10268 12.0903 5.75488
RightArm  -60.5346 73.1003 -7.18771
RightForeArm  -20.6969 6.95381 5.60335
RightHand  -1.80678 7.37443 -16.7509
LeftUpLeg  -77.9459 22.1682 -32.6608
LeftLeg  38.9205 7.29172 6.64616
LeftFoot  -11.7926 0.118936 12.0818
LeftToes  1.06248e-005 4.65856e-005 -8.18499e-006
209
root  61.0234 36.0232 -18.7422 38.2558 17.7177 -1.33556
RightUpLeg  -74.4697 -15.063 22.9562
RightLeg  38.1628 -5.48622 -4.88632
RightFoot  -5.37501 0.497085 -10.1962
RightToes  0.00048216 0.542163 -0.142577
Spine  68.8639 -3.57641 8.32654
Spine1  0.687272 1.95408 -2.79189
HEad  -41.6298 -5.43274 9.55839
LeftShoulder1  9.00453 -29.1801 -20.885
LeftArm  -75.2163 -64.4472 36.0547
LeftForeArm  8.78379 -4.62701 -2.27445
LeftHand  -0.25398 0.0180481 5.50724
RightShoulder  2.15887 12.0617 6.18931
RightArm  -60.6158 72.8385 -8.06517
RightForeArm  -19.9771 6.37491 5.54836
RightHand  -1.79067 6.50783 -17.7423
LeftUpLeg  -76.7634 22.5386 -32.7278
LeftLeg  37.9162 7.41485 6.52513
LeftFoot  -11.3599 0.0705493 12.3458
LeftToes  1.06248e-005 4.65856e-005 -8.18499e-006
210
root  61.0037 36.1902 -18.8156 37.4421 17.7762 -1.0159
RightUpLeg  -73.2401 -15.7699 22.6846
RightLeg  37.1143 -5.3381 -4.59428
RightFoot  -4.8444 0.570285 -10.5812
RightToes  0.00048216 0.542163 -0.142577
Spine  68.2288 -3.61683 8.73724
Spine1  0.914254 2.00372 -2.47807
HEad  -41.3612 -5.81111 9.13321
LeftShoulder1  9.01048 -28.9973 -21.0738
LeftArm  -74.1765 -66.1171 33.9068
LeftForeArm  11.3951 -4.10294 -2.44702
LeftHand  -0.25398 0.0180481 5.50724
RightShoulder  2.21996 12.032 6.66142
RightArm  -59.7451 72.9667 -8.98376
RightForeArm  -19.8076 5.51395 5.88584
RightHand  -1.80702 5.84129 -18.9047
LeftUpLeg  -75.139 22.8617 -32.6858
LeftLeg  36.4775 7.60502 6.36082
LeftFoot  -10.7946 0.00422121 12.6947
LeftToes  1.06248e-005 4.65856e-005 -8.18499e-006
211
root  60.9833 36.4084 -18.9051 36.4787 17.8096 -0.777374
RightUpLeg  -71.6222 -16.4425 22.3678
RightLeg  35.6138 -5.23811 -4.28544
RightFoot  -4.08514 0.66378 -10.8591
RightToes  0.00048216 0.542163 -0.142577
Spine  67.3442 -3.58232 9.04961
Spine1  1.20856 2.01965 -1.97595
HEad  -40.9466 -6.18418 8.56557
LeftShoulder1  9.0854 -28.8957 -21.4132
LeftArm  -70.8906 -67.4956 29.549
LeftForeArm  13.397 -3.07813 -2.63497
LeftHand  -0.25398 0.0180481 5.50724
RightShoulder  2.31051 12.0736 7.27088
RightArm  -57.8765 73.4765 -8.52574
RightForeArm  -17.7375 4.0558 6.11359
RightHand  -1.64337 4.85691 -18.8074
LeftUpLeg  -73.2053 23.2666 -32.4554
LeftLeg  34.632 7.85796 6.15438
LeftFoot  -10.0076 -0.0916335 13.008
LeftToes  1.06248e-005 4.65856e-005 -8.18499e-006
212
root  60.967 36.6734 -19.0036 35.1945 17.8186 -0.594742
RightUpLeg  -69.4836 -17.2424 21.9983
RightLeg  33.7254 -5.05367 -3.88043
RightFoot  -3.20156 0.764002 -10.9958
RightToes  0.00048216 0.542163 -0.142577
Spine  66.391 -3.70853 9.31894
Spine1  1.48023 1.93864 -1.76215
HEad  -40.2487 -6.44431 8.08065
LeftShoulder1  9.20604 -28.858 -21.8427
LeftArm  -64.1775 -68.1545 21.8942
LeftForeArm  14.8594 -1.81002 -2.90364
LeftHand  -0.25398 0.0180481 5.50724
RightShoulder  2.50726 12.2662 8.46249
RightArm  -54.0418 74.0206 -4.9851
RightForeArm  -13.8014 2.38467 6.0674
RightHand  -1.44949 3.93259 -18.2492
LeftUpLeg  -70.8237 23.8788 -32.0505
LeftLeg  32.4871 8.0381 5.83084
LeftFoot  -9.01008 -0.211753 13.0342
LeftToes  1.06248e-005 4.65856e-005 -8.18499e-006
213
root  60.9616 36.9648 -19.0995 33.5536 17.7564 -0.446884
RightUpLeg  -66.8608 -18.2407 21.5536
RightLeg  31.6264 -4.60563 -3.30488
RightFoot  -2.31922 0.85666 -11.0108
RightToes  0.00048216 0.542163 -0.142577
Spine  65.4493 -3.98918 9.55258
Spine1  1.63571 1.7573 -1.86013
HEad  -39.2612 -6.52399 7.70547
LeftShoulder1  9.40779 -28.7271 -22.628
LeftArm  -54.4037 -67.6231 11.2369
LeftForeArm  16.0563 -0.967955 -3.29876
LeftHand  -0.25398 0.0180481 5.50724
RightShoulder  2.80767 12.5462 10.2416
RightArm  -46.9034 74.0631 2.5213
RightForeArm  -10.7132 1.36358 6.10349
RightHand  -1.53976 4.03465 -19.1068
LeftUpLeg  -68.006 24.6947 -31.4553
LeftLeg  30.238 8.2965 5.5359
LeftFoot  -7.97858 -0.331524 12.8746
LeftToes  1.06248e-005 4.65856e-005 -8.18499e-006
214
root  60.9692 37.2647 -19.1904 31.5816 17.5699 -0.387329
RightUpLeg  -63.8093 -19.3061 20.9907
RightLeg  29.4547 -3.95921 -2.65917
RightFoot  -1.42197 0.937994 -10.8761
RightToes  0.00048216 0.542163 -0.142577
Spine  64.473 -4.1014 9.67591
Spine1  1.79477 1.57095 -1.67273
HEad  -38.1156 -6.49673 7.13517
LeftShoulder1  9.72985 -28.4705 -23.937
LeftArm  -43.9189 -65.4884 -0.226843
LeftForeArm  17.2135 -0.966918 -3.71476
LeftHand  -0.25398 0.0180481 5.50724
RightShoulder  3.07715 12.6731 11.941
RightArm  -37.1228 73.1766 12.8036
RightForeArm  -9.18519 1.28876 6.42373
RightHand  -1.92754 5.28889 -21.092
LeftUpLeg  -64.697 25.4354 -30.2812
LeftLeg  27.9614 9.08598 5.52893
LeftFoot  -7.01129 -0.447072 12.8801
LeftToes  1.06248e-005 4.65856e-005 -8.18499e-006
215
root  60.9909 37.566 -19.2808 29.3258 17.2606 -0.429871
RightUpLeg  -60.3908 -20.3427 20.296
RightLeg  27.2523 -3.28164 -2.07088
RightFoot  -0.42885 1.00996 -10.5641
RightToes  0.00048216 0.542163 -0.142577
Spine  63.4367 -3.90685 9.63908
Spine1  2.10081 1.44013 -0.933504
HEad  -36.8515 -6.40404 6.26146
LeftShoulder1  10.1857 -28.0979 -25.8239
LeftArm  -34.979 -61.8234 -10.1127
LeftForeArm  18.6115 -1.57163 -4.09583
LeftHand  -0.25398 0.0180481 5.50724
RightShoulder  3.25389 12.596 13.2505
RightArm  -27.2975 71.1604 22.9734
RightForeArm  -7.19381 1.73032 6.85669
RightHand  -2.30102 6.65376 -22.3273
LeftUpLeg  -60.805 25.7547 -28.2178
LeftLeg  25.6994 10.5308 5.80216
LeftFoot  -5.9816 -0.566483 12.8214
LeftToes  1.06248e-005 4.65856e-005 -8.18499e-006
216
root  61.0262 37.8621 -19.3709 26.9433 16.9151 -0.443665
RightUpLeg  -56.8253 -21.4916 19.5467
RightLeg  25.0235 -2.52722 -1.53493
RightFoot  0.6313 1.08107 -10.2297
RightToes  0.00048216 0.542163 -0.142577
Spine  62.3652 -3.67648 9.47658
Spine1  2.3597 1.28403 -0.155373
HEad  -35.2936 -6.134 5.47749
LeftShoulder1  10.7448 -27.5024 -28.3351
LeftArm  -27.9145 -56.9761 -17.5749
LeftForeArm  20.4258 -2.28699 -4.56638
LeftHand  -0.25398 0.0180481 5.50724
RightShoulder  3.47719 12.6307 14.7253
RightArm  -19.2057 67.9593 30.5496
RightForeArm  -4.2725 2.28222 7.39913
RightHand  -2.40149 7.1736 -22.3327
LeftUpLeg  -56.6691 25.6451 -25.7242
LeftLeg  23.7573 12.2013 6.14052
LeftFoot  -4.70969 -0.676422 12.1298
LeftToes  1.06248e-005 4.65856e-005 -8.18499e-006
217
root  61.0627 38.1491 -19.4558 24.6226 16.6752 -0.257919
RightUpLeg  -53.2491 -22.8173 18.6016
RightLeg  22.7319 -1.82551 -0.991584
RightFoot  1.66191 1.1712 -10.1384
RightToes  0.00048216 0.542163 -0.142577
Spine  61.1188 -3.49262 9.23436
Spine1  2.55667 1.09572 0.456628
HEad  -33.6 -5.74514 5.04407
LeftShoulder1  11.1968 -26.7437 -30.7569
LeftArm  -22.5216 -51.4175 -23.0142
LeftForeArm  22.4448 -2.90493 -5.04653
LeftHand  -0.25398 0.0180481 5.50724
RightShoulder  3.71237 12.6472 16.292
RightArm  -12.9565 63.8749 35.2537
RightForeArm  -2.09257 2.90044 8.12928
RightHand  -2.3726 7.10789 -22.1859
LeftUpLeg  -52.8958 25.4085 -23.5159
LeftLeg  22.5214 13.4963 6.39351
LeftFoot  -3.02887 -0.786405 11.0455
LeftToes  1.06248e-005 4.65856e-005 -8.18499e-006
218
root  61.0882 38.3983 -19.5249 22.3693 16.6426 0.103867
RightUpLeg  -49.292 -23.305 16.2134
RightLeg  20.7093 -2.75182 -0.333249
RightFoot  2.46265 1.26179 -10.2477
RightToes  0.00048216 0.542163 -0.142577
Spine  59.6777 -3.30874 9.00781
Spine1  2.76551 0.792042 1.12151
HEad  -31.9671 -5.2762 4.75074
LeftShoulder1  11.5421 -25.9087 -33.0099
LeftArm  -18.4551 -45.6464 -26.4693
LeftForeArm  24.3228 -3.48383 -5.58774
LeftHand  -0.25398 0.0180481 5.50724
RightShoulder  3.97846 12.7714 17.8754
RightArm  -8.3189 59.2221 37.593
RightForeArm  -1.08193 3.56716 8.93981
RightHand  -2.4285 7.18542 -22.5509
LeftUpLeg  -49.4258 24.8689 -21.4129
LeftLeg  21.8761 14.4144 6.59714
LeftFoot  -1.15495 -0.913526 10.2839
LeftToes  1.06248e-005 4.65856e-005 -8.18499e-006
219
root  61.1206 38.5452 -19.5696 20.0125 16.7105 0.344177
RightUpLeg  -44.8097 -21.5125 11.5838
RightLeg  19.724 -6.68375 0.476581
RightFoot  2.73738 1.27738 -10.1568
RightToes  0.00048216 0.542163 -0.142577
Spine  58.066 -3.03801 9.08349
Spine1  3.03111 0.329431 2.03336
HEad  -30.4047 -4.90271 4.33989
LeftShoulder1  11.8033 -24.9972 -35.1808
LeftArm  -15.1813 -40.2362 -28.1637
LeftForeArm  25.8053 -3.93136 -6.25477
LeftHand  -0.25398 0.0180481 5.50724
RightShoulder  4.31003 13.0448 19.599
RightArm  -5.31897 54.3913 38.1671
RightForeArm  0.0906485 4.10444 9.53848
RightHand  -2.54416 7.5371 -22.9724
LeftUpLeg  -45.4819 23.0364 -18.687
LeftLeg  21.1202 16.6023 7.25339
LeftFoot  -0.19196 -0.940308 9.63179
LeftToes  1.06248e-005 4.65856e-005 -8.18499e-006
220
root  61.1803 38.6617 -19.6133 17.7482 16.8118 0.723877
RightUpLeg  -40.6749 -18.734 6.69953
RightLeg  19.1721 -11.1831 1.14009
RightFoot  2.89742 1.23521 -9.69915
RightToes  0.00048216 0.542163 -0.142577
Spine  56.3134 -2.77866 9.19534
Spine1  3.4076 -0.136487 2.81188
HEad  -28.6361 -4.94877 3.93948
LeftShoulder1  11.9448 -24.0233 -37.134
LeftArm  -12.1962 -35.3963 -28.9049
LeftForeArm  26.8402 -4.06322 -7.01117
LeftHand  -0.25398 0.0180481 5.50724
RightShoulder  4.70387 13.3133 21.6587
RightArm  -3.67295 49.4958 37.4482
RightForeArm  1.76403 4.47819 9.86713
RightHand  -2.55393 7.67024 -22.8326
LeftUpLeg  -41.2379 19.1908 -15.503
LeftLeg  20.7142 20.4548 8.60378
LeftFoot  0.168728 -0.756148 7.47021
LeftToes  1.06248e-005 4.65856e-005 -8.18499e-006
